<svg width="33" height="29" xmlns="http://www.w3.org/2000/svg" fill="none">

 <g>
  <title>Layer 1</title>
  <path id="svg_1" fill="#1fc464" d="m29.9062,14.5l-5.1562,0l0,-4.1429c0,-2.285 1.8498,-4.14281 4.125,-4.14281l0.5156,0c0.8573,0 1.5469,-0.69264 1.5469,-1.55358l0,-3.10714c0,-0.86094 -0.6896,-1.55357 -1.5469,-1.55357l-0.5156,0c-5.6977,0 -10.3125,4.63482 -10.3125,10.3571l0,15.5358c0,1.7154 1.3857,3.1071 3.0937,3.1071l8.25,0c1.7081,0 3.0938,-1.3917 3.0938,-3.1071l0,-8.2858c0,-1.7154 -1.3857,-3.1071 -3.0938,-3.1071zm-18.5624,0l-5.1563,0l0,-4.1429c0,-2.285 1.8498,-4.14281 4.125,-4.14281l0.5156,0c0.8573,0 1.5469,-0.69264 1.5469,-1.55358l0,-3.10714c0,-0.86094 -0.6896,-1.55357 -1.5469,-1.55357l-0.5156,0c-5.69766,0 -10.3125,4.63482 -10.3125,10.3571l0,15.5358c0,1.7154 1.38574,3.1071 3.09375,3.1071l8.25005,0c1.708,0 3.0937,-1.3917 3.0937,-3.1071l0,-8.2858c0,-1.7154 -1.3857,-3.1071 -3.0937,-3.1071z"/>
 </g>
</svg>